<svg width="26" height="26" viewBox="0 0 26 26" fill="none" xmlns="http://www.w3.org/2000/svg">
<path d="M6.34295 5.12505C6.3251 4.72548 6.38734 4.32637 6.526 3.9512C6.66466 3.57604 6.87694 3.23238 7.15035 2.94045C7.42376 2.64853 7.75279 2.41422 8.11809 2.25132C8.48338 2.08841 8.87756 2.0002 9.27744 1.99186C9.67733 1.98353 10.0748 2.05524 10.4466 2.20278C10.8184 2.35032 11.1569 2.57072 11.4422 2.851C11.7276 3.13128 11.954 3.46579 12.1081 3.83485C12.2623 4.20391 12.3411 4.60008 12.3399 5.00005V18M6.34295 5.12505C5.75515 5.27619 5.20945 5.5591 4.74718 5.95236C4.28491 6.34562 3.91819 6.83892 3.67479 7.3949C3.4314 7.95087 3.31771 8.55494 3.34234 9.16136C3.36697 9.76778 3.52927 10.3606 3.81695 10.8951M6.34295 5.12505C6.36272 5.60878 6.49928 6.08055 6.74095 6.50005M3.81695 10.8951C3.31113 11.306 2.91338 11.8343 2.65829 12.434C2.4032 13.0337 2.29851 13.6866 2.35331 14.336C2.40812 14.9854 2.62077 15.6116 2.97275 16.1601C3.32474 16.7085 3.80541 17.1627 4.37295 17.4831M3.81695 10.8951C3.99989 10.7461 4.19565 10.6145 4.40195 10.5001M4.37295 17.4831C4.30287 18.0253 4.34469 18.5761 4.49584 19.1016C4.64698 19.627 4.90424 20.1159 5.25173 20.538C5.59922 20.9601 6.02956 21.3065 6.51617 21.5558C7.00278 21.8051 7.53533 21.952 8.08092 21.9874C8.62652 22.0228 9.17359 21.946 9.68834 21.7617C10.2031 21.5774 10.6746 21.2895 11.0737 20.9158C11.4728 20.5421 11.7911 20.0906 12.0089 19.5891C12.2267 19.0876 12.3394 18.5468 12.3399 18M4.37295 17.4831C4.97322 17.8216 5.65078 18.0004 6.33995 18.0001M12.3399 18H18.3399C18.8704 18 19.3791 18.2108 19.7542 18.5858C20.1292 18.9609 20.3399 19.4696 20.3399 20V21M9.33995 13.0001C10.1795 12.7047 10.9126 12.167 11.4466 11.4551C11.9806 10.7431 12.2915 9.88872 12.3399 9.00005M12.3399 13.0001H16.3399M12.3399 8.00005H20.3399M16.3399 8.00005V5.00005C16.3399 4.46962 16.5507 3.96091 16.9257 3.58584C17.3008 3.21076 17.8095 3.00005 18.3399 3.00005M16.8399 13.0001C16.8399 13.2762 16.6161 13.5001 16.3399 13.5001C16.0638 13.5001 15.8399 13.2762 15.8399 13.0001C15.8399 12.7239 16.0638 12.5001 16.3399 12.5001C16.6161 12.5001 16.8399 12.7239 16.8399 13.0001ZM18.8399 3.00005C18.8399 3.27619 18.6161 3.50005 18.3399 3.50005C18.0638 3.50005 17.8399 3.27619 17.8399 3.00005C17.8399 2.72391 18.0638 2.50005 18.3399 2.50005C18.6161 2.50005 18.8399 2.72391 18.8399 3.00005ZM20.8399 21C20.8399 21.2762 20.6161 21.5 20.3399 21.5C20.0638 21.5 19.8399 21.2762 19.8399 21C19.8399 20.7239 20.0638 20.5 20.3399 20.5C20.6161 20.5 20.8399 20.7239 20.8399 21ZM20.8399 8.00005C20.8399 8.27619 20.6161 8.50005 20.3399 8.50005C20.0638 8.50005 19.8399 8.27619 19.8399 8.00005C19.8399 7.72391 20.0638 7.50005 20.3399 7.50005C20.6161 7.50005 20.8399 7.72391 20.8399 8.00005Z" stroke="white" stroke-width="2" stroke-linecap="round" stroke-linejoin="round"/>
</svg>
