<svg width="26" height="26" viewBox="0 0 26 26" fill="none" xmlns="http://www.w3.org/2000/svg">
<path d="M17.67 9H19.67C20.2005 9 20.7092 9.21071 21.0843 9.58579C21.4593 9.96086 21.67 10.4696 21.67 11V22L17.67 18H11.67C11.1396 18 10.6309 17.7893 10.2558 17.4142C9.88076 17.0391 9.67004 16.5304 9.67004 16V15M13.67 9C13.67 9.53043 13.4593 10.0391 13.0843 10.4142C12.7092 10.7893 12.2005 11 11.67 11H5.67004L1.67004 15V4C1.67004 3.46957 1.88076 2.96086 2.25583 2.58579C2.6309 2.21071 3.13961 2 3.67004 2H11.67C12.2005 2 12.7092 2.21071 13.0843 2.58579C13.4593 2.96086 13.67 3.46957 13.67 4V9Z" stroke="white" stroke-width="2" stroke-linecap="round" stroke-linejoin="round"/>
</svg>
