<svg width="30" height="30" viewBox="0 0 30 30" fill="none" xmlns="http://www.w3.org/2000/svg">
<path d="M10.3675 17.5L8.15874 26.335C7.92624 27.2675 9.07874 27.905 9.74499 27.2112L24.7375 11.5875C24.8649 11.455 24.9506 11.288 24.9839 11.1072C25.0172 10.9264 24.9966 10.7398 24.9247 10.5707C24.8527 10.4015 24.7326 10.2572 24.5794 10.1557C24.4261 10.0543 24.2463 10.0001 24.0625 10H18.4875L20.5775 3.73375C20.6244 3.59279 20.6372 3.44269 20.6148 3.29582C20.5923 3.14895 20.5353 3.00952 20.4483 2.88902C20.3614 2.76853 20.2471 2.67042 20.1148 2.60278C19.9825 2.53514 19.8361 2.49991 19.6875 2.5H10.9375C10.7338 2.50004 10.5356 2.56643 10.373 2.68912C10.2104 2.81181 10.0922 2.98413 10.0362 3.18L6.28624 16.305C6.24639 16.4445 6.23946 16.5914 6.266 16.734C6.29254 16.8766 6.35183 17.0112 6.43919 17.127C6.52655 17.2428 6.63961 17.3368 6.76945 17.4015C6.8993 17.4663 7.0424 17.5 7.18749 17.5H10.3675Z" fill="white"/>
</svg>
