<svg width="28" height="28" viewBox="0 0 28 28" fill="none" xmlns="http://www.w3.org/2000/svg">
<path d="M20.0293 9.33333H15.1667L16.107 3.6925C16.135 3.52525 16.1262 3.35392 16.0812 3.19043C16.0362 3.02694 15.9561 2.87523 15.8465 2.74585C15.7369 2.61647 15.6004 2.51254 15.4465 2.4413C15.2926 2.37005 15.1251 2.33321 14.9555 2.33333H8.94484C8.66885 2.33341 8.40183 2.43133 8.19122 2.60969C7.9806 2.78804 7.84004 3.03529 7.7945 3.3075L5.84967 14.9742C5.82171 15.1413 5.8305 15.3125 5.87542 15.4759C5.92035 15.6393 6.00033 15.791 6.10982 15.9204C6.2193 16.0497 6.35565 16.1537 6.50938 16.225C6.66311 16.2963 6.83053 16.3333 7 16.3333H11.6667V25.6667L21.0117 11.1312C21.1251 10.9548 21.1889 10.7512 21.1964 10.5417C21.2039 10.3322 21.1548 10.1246 21.0543 9.94059C20.9538 9.75662 20.8055 9.60313 20.6252 9.49627C20.4448 9.38941 20.239 9.33312 20.0293 9.33333Z" fill="black"/>
</svg>
